<?xml version="1.0" encoding="utf-8"?>
<!-- Generator: Adobe Illustrator 21.0.0, SVG Export Plug-In . SVG Version: 6.00 Build 0)  -->
<svg version="1.1" id="Layer_1" xmlns="http://www.w3.org/2000/svg" xmlns:xlink="http://www.w3.org/1999/xlink" x="0px" y="0px"
	 viewBox="0 0 45 45" style="enable-background:new 0 0 45 45;" xml:space="preserve">
<style type="text/css">
	.st0{fill:#B62025;stroke:#B62025;stroke-miterlimit:10;}
	.st1{fill:#B62025;}
</style>
<g>
	<g>
		<path class="st0" d="M21.3,3.4c3.6-0.2,7.3,0.6,10.5,2.4c2.6,1.5,4.9,3.6,6.6,6.1c1.6,2.4,2.6,5.1,3,7.9c0.4,2.6,0.2,5.3-0.5,7.8
			c-0.8,2.8-2.2,5.4-4.1,7.6c-2.1,2.3-4.7,4.1-7.6,5.2c-2.1,0.8-4.3,1.2-6.5,1.2c-3,0-6-0.6-8.7-2c-2.6-1.3-4.8-3.1-6.6-5.4
			c-1.8-2.3-3.1-5.1-3.7-8c-0.4-2.3-0.5-4.6-0.1-6.9c0.5-3,1.8-5.9,3.6-8.3c1.8-2.3,4.1-4.2,6.7-5.5C16.3,4.3,18.8,3.6,21.3,3.4z
			 M21.4,4.7c-3.5,0.2-7,1.5-9.8,3.7c-2.5,1.9-4.4,4.5-5.6,7.4c-1.1,2.6-1.5,5.5-1.3,8.3c0.3,3.4,1.5,6.6,3.6,9.3
			c1.8,2.3,4.1,4.2,6.8,5.4c2.6,1.2,5.6,1.7,8.5,1.6c2.5-0.1,4.9-0.8,7.1-1.9c2.9-1.5,5.5-3.9,7.2-6.7c1.2-2,2-4.2,2.3-6.4
			c0.4-2.8,0.2-5.6-0.7-8.3c-0.9-2.7-2.4-5.3-4.5-7.3c-2.2-2.1-4.9-3.7-7.8-4.5C25.3,4.8,23.3,4.6,21.4,4.7z"/>
	</g>
	<path class="st1" d="M21.7,10.2c0.2-0.1,0.4,0,0.6,0c0.1,0,0.1,0,0.2,0c0.4,0,0.7,0,1.1,0c0.2,0,0.4,0,0.5,0c0,0-0.1,0-0.1,0.1
		c0.1,0,0.2,0,0.2,0c0.3,0,0.5,0.1,0.8,0.1c0.2,0.1,0.5,0.1,0.7,0.1c0.2,0,0.3,0.1,0.5,0.1c0.1,0.1,0.3,0.1,0.5,0.1
		c0.2,0.1,0.4,0.2,0.7,0.2c0,0,0.1,0,0.1,0c0.1,0,0.2,0.1,0.3,0.1c0.1,0.1,0.3,0.1,0.4,0.2c0.1,0,0.1,0.1,0.2,0.1c0,0,0.1,0,0.1,0
		c0.2,0.1,0.3,0.2,0.5,0.2c0.2,0.1,0.5,0.3,0.7,0.4c1.9,1.1,3.4,2.7,4.5,4.5c0.2,0.3,0.3,0.6,0.5,0.9c0.2,0.4,0.4,0.8,0.5,1.3
		c0.1,0.3,0.2,0.6,0.3,0.9c0,0.1,0.1,0.2,0.1,0.3c0,0,0,0,0,0.1c0,0,0,0.1,0,0.1c0,0.1,0.1,0.3,0.1,0.4c0,0.4,0.1,0.7,0.1,1.1
		c0.1,0.3,0,0.6,0.1,0.9c0,0.5,0,0.9,0,1.4c-0.1,0.2,0,0.4-0.1,0.6c0,0.3-0.1,0.5-0.1,0.7c-0.1,0.2-0.1,0.5-0.2,0.7
		c0,0.2-0.1,0.5-0.2,0.7c0,0.1-0.1,0.3-0.1,0.4c-0.1,0.2-0.2,0.5-0.3,0.7c0,0.1-0.1,0.1-0.1,0.2c0,0,0,0.1,0,0.1
		c0,0.1-0.1,0.1-0.1,0.2c0,0.1-0.1,0.2-0.1,0.2c-0.1,0.1-0.1,0.2-0.2,0.3c-0.1,0.1-0.1,0.2-0.2,0.3c0-1.1,0-2.2,0-3.4
		c0-0.1,0-0.2,0-0.3c0-0.1,0-0.2,0-0.3c-0.1-0.1-0.1-0.3-0.1-0.4c0-0.1-0.1-0.2-0.1-0.3c-0.1-0.1-0.2-0.3-0.2-0.4
		c0-0.5,0.1-1,0.1-1.6c0-0.3-0.1-0.5-0.1-0.8c0-0.1,0-0.2,0-0.3c0-0.4-0.2-0.8-0.3-1.3c0-0.1-0.1-0.3-0.1-0.4c0-0.1-0.1-0.2-0.1-0.2
		c0-0.1,0-0.1,0-0.2c0-0.1-0.1-0.2-0.1-0.3c0-0.1-0.1-0.2-0.1-0.2c0,0,0-0.1,0-0.1c0-0.1-0.1-0.2-0.1-0.2c-0.1-0.2-0.2-0.3-0.3-0.5
		c0,0,0-0.1,0-0.1c-0.2-0.3-0.4-0.6-0.5-0.9c-0.2-0.3-0.4-0.6-0.7-0.9c-0.3-0.3-0.5-0.6-0.8-0.8c-0.2-0.2-0.5-0.4-0.7-0.6
		c-0.4-0.3-0.8-0.6-1.3-0.9c-0.4-0.2-0.8-0.4-1.2-0.6c-0.1,0-0.2-0.1-0.3-0.1c-0.3-0.1-0.6-0.2-0.9-0.3c-0.2,0-0.4-0.1-0.6-0.2
		c-0.2-0.1-0.4-0.1-0.6-0.1c-0.2-0.1-0.3-0.1-0.5-0.1c-0.1,0-0.2,0-0.4,0c-0.5-0.1-0.9-0.1-1.4-0.1c-0.4,0-0.9,0-1.3,0.1
		c-0.1,0-0.3,0-0.4,0.1c-0.1,0-0.2,0-0.3,0c-0.2,0-0.3,0.1-0.5,0.1c0,0-0.1,0-0.1,0c-0.1,0-0.2,0.1-0.3,0.1c-0.1,0-0.3,0.1-0.4,0.1
		c0,0-0.1,0-0.1,0C19.2,13,19.1,13,19,13c-0.2,0.1-0.4,0.2-0.6,0.3c-0.1,0-0.1,0.1-0.2,0.1c-0.4,0.2-0.7,0.4-1.1,0.6
		c-0.2,0.1-0.4,0.3-0.7,0.5c-0.3,0.2-0.5,0.4-0.7,0.6c-0.3,0.2-0.5,0.5-0.8,0.8c-0.2,0.2-0.4,0.5-0.6,0.8c-0.3,0.4-0.5,0.8-0.7,1.1
		c0,0,0,0.1,0,0.1c-0.1,0.2-0.2,0.3-0.2,0.5c0,0.1-0.1,0.2-0.1,0.3c0,0.1-0.1,0.2-0.1,0.3c0,0.1-0.1,0.2-0.1,0.3c0,0,0,0.1,0,0.1
		c0,0.1-0.1,0.2-0.1,0.2c-0.1,0.2-0.1,0.4-0.2,0.6c-0.1,0.2-0.1,0.4-0.1,0.5c-0.1,0.2-0.1,0.3-0.1,0.5c0,0.1,0,0.2,0,0.3
		c0,0.3-0.1,0.6-0.1,0.9c0,0.2,0,0.5,0,0.7c0,0.1,0,0.3,0,0.4c0,0.1,0,0.2,0,0.3c-0.2,0.2-0.3,0.5-0.5,0.8c0,0.1,0,0.1,0,0.2
		c-0.1,0.1-0.1,0.3-0.1,0.4c0,1.2,0,2.4,0,3.6c0,0-0.1,0-0.1,0c-0.1-0.3-0.3-0.5-0.4-0.8c0-0.1-0.1-0.2-0.1-0.3
		c-0.1-0.1-0.1-0.2-0.1-0.4c0-0.1-0.1-0.1-0.1-0.2c0,0,0-0.1,0-0.1c-0.1-0.4-0.3-0.8-0.4-1.3c0-0.3-0.2-0.5-0.2-0.8
		c-0.1-0.2,0-0.3-0.1-0.5c0-0.2,0-0.3,0-0.5c0-0.1,0-0.1,0-0.2c0-0.6,0-1.2,0-1.8c0-0.1,0-0.3,0.1-0.4c0-0.1,0-0.2,0-0.3
		c0-0.4,0.1-0.8,0.2-1.2c0-0.2,0.1-0.3,0.1-0.5c0-0.1,0.1-0.3,0.1-0.4c0-0.2,0.1-0.3,0.2-0.5c0.1-0.1,0.1-0.2,0.1-0.4
		c0.1-0.3,0.3-0.6,0.4-0.9c0.2-0.3,0.3-0.6,0.5-0.9c1.1-1.9,2.7-3.4,4.5-4.5c0.1,0,0.1-0.1,0.2-0.1c0.2-0.1,0.3-0.2,0.5-0.3
		c0.1,0,0.2-0.1,0.3-0.1c0.3-0.1,0.6-0.3,1-0.4c0.1,0,0.2-0.1,0.3-0.1c0,0,0.1,0,0.1,0c0.1,0,0.2-0.1,0.2-0.1c0.1,0,0.2-0.1,0.4-0.1
		c0.1,0,0.2-0.1,0.3-0.1c0.1,0,0.1,0,0.2-0.1c0.2,0,0.3-0.1,0.5-0.1c0.2,0,0.4-0.1,0.7-0.1C21.2,10.3,21.5,10.2,21.7,10.2z"/>
	<path class="st1" d="M15.5,23c0.3,0,0.6,0,0.9-0.1c0.1,0,0.1,0,0.2,0c0.2-0.1,0.3,0,0.5,0c0.1-0.1,0.3,0,0.4,0c0.1,0,0.2,0,0.3,0
		c0.1,0,0.1,0,0.2,0c0,0,0.1,0,0.1,0c0,2.3,0,4.6,0,6.8c0,1.1,0,2.2,0,3.2c-0.7,0-1.4,0-2.1,0l0,0c-0.1,0-0.2,0-0.3,0
		c-0.1,0-0.2,0-0.3,0l0,0c-0.1,0-0.2,0-0.3-0.1c-0.1,0-0.2-0.1-0.3-0.1c-0.1,0-0.1,0-0.2,0c-0.1,0-0.2-0.1-0.3-0.1
		c-0.7-0.3-1.4-0.8-1.7-1.6c-0.1-0.2-0.1-0.4-0.1-0.7c0-1.6,0-3.2,0-4.8c0-0.2,0-0.4,0.1-0.6c0.1-0.2,0.2-0.4,0.3-0.6
		c0.2-0.2,0.4-0.4,0.6-0.6c0.4-0.3,0.9-0.5,1.4-0.7c0,0,0.1,0,0.1,0c0.1,0,0.3,0,0.4-0.1C15.3,23,15.4,23,15.5,23z"/>
	<path class="st1" d="M27.9,22.9c0.9,0,1.8-0.1,2.8,0.1c0.1,0,0.3,0.1,0.4,0.1c0.1,0,0.3,0.1,0.4,0.1c0,0,0.1,0,0.1,0
		c0.1,0,0.2,0.1,0.3,0.1c0.1,0.1,0.2,0.1,0.3,0.1c0.1,0,0.1,0.1,0.2,0.1c0.3,0.2,0.6,0.4,0.8,0.6c0.2,0.2,0.3,0.5,0.5,0.7
		c0,0,0,0,0,0c0,0.1,0.1,0.1,0.1,0.2c0,0.9,0,1.8,0,2.7c0,0.8,0,1.6,0,2.4c0,0.2,0,0.3,0,0.5c-0.2,0.8-0.8,1.3-1.5,1.7
		c-0.1,0-0.2,0.1-0.3,0.2c-0.1,0-0.2,0.1-0.2,0.1c-0.1,0-0.1,0-0.2,0c0,0,0,0,0,0c-0.1,0-0.2,0.1-0.3,0.1c-0.1,0-0.3,0-0.5,0.1
		c-0.1,0-0.2,0-0.3,0c0,0-0.1,0-0.1,0c-0.7,0-1.4,0-2.1,0c0-2,0-4,0-6.1C27.9,25.6,27.9,24.3,27.9,22.9z"/>
</g>
</svg>
