<?xml version="1.0" encoding="utf-8"?>
<!-- Generator: Adobe Illustrator 21.0.0, SVG Export Plug-In . SVG Version: 6.00 Build 0)  -->
<svg version="1.1" id="Layer_1" xmlns="http://www.w3.org/2000/svg" xmlns:xlink="http://www.w3.org/1999/xlink" x="0px" y="0px"
	 viewBox="0 0 45 45" style="enable-background:new 0 0 45 45;" xml:space="preserve">
<style type="text/css">
	.st0{fill:#B52025;stroke:#B52025;stroke-miterlimit:10;}
	.st1{fill:#B52025;}
</style>
<g>
	<g>
		<path class="st0" d="M21.3,3.8c3.6-0.2,7.2,0.6,10.3,2.3c2.6,1.5,4.9,3.6,6.6,6.1c1.6,2.4,2.6,5.2,2.9,8c0.3,2.4,0.1,4.9-0.5,7.2
			c-0.8,2.9-2.3,5.6-4.4,7.8c-2,2.1-4.4,3.7-7.1,4.7c-2.3,0.9-4.7,1.3-7.2,1.2c-2.5-0.1-5.1-0.7-7.3-1.7c-2.7-1.2-5-3.1-6.8-5.5
			c-1.8-2.3-3.1-5-3.6-7.9c-0.4-2.2-0.5-4.6-0.1-6.8c0.5-3,1.7-5.8,3.6-8.2c1.7-2.3,4-4.2,6.6-5.4C16.4,4.6,18.8,3.9,21.3,3.8z
			 M21.4,5c-3.8,0.2-7.6,1.8-10.5,4.3c-2.1,1.9-3.8,4.3-4.8,6.9c-1,2.5-1.3,5.2-1.1,7.9c0.3,3.3,1.5,6.4,3.5,9
			c1.8,2.3,4.1,4.2,6.7,5.3C18,39.7,21,40.2,24,40c2.3-0.2,4.5-0.8,6.6-1.9c3-1.5,5.5-3.9,7.1-6.8c1-1.8,1.7-3.7,2.1-5.8
			c0.5-2.8,0.3-5.7-0.6-8.5c-0.9-2.7-2.4-5.1-4.4-7.1c-2-2-4.6-3.5-7.3-4.3C25.5,5.1,23.4,4.9,21.4,5z"/>
	</g>
	<g>
		<path class="st1" d="M31.8,10.3c0.2-0.1,0.5-0.1,0.7,0c0.6,0.4,1.2,0.8,1.8,1.2c0.2,0.1,0.3,0.3,0.4,0.5c0.1,0.2,0,0.4,0,0.5
			c0,0.1-0.1,0.3-0.2,0.4c-2.2,3.3-4.4,6.5-6.5,9.8c-0.3,0.4-0.6,0.8-0.8,1.2c-0.1,0.2-0.3,0.5-0.6,0.6c-0.2,0.1-0.4,0.2-0.6,0.3
			c-0.1,0-0.1,0.1-0.2,0.1c-0.7,0.4-1.5,0.9-2.2,1.3c-0.2,0.1-0.3,0.2-0.5,0.3c0,0-0.1,0-0.2,0c0.1-0.2,0.1-0.4,0.1-0.6
			c0-0.1,0-0.2,0-0.3c0.1-0.2,0-0.4,0.1-0.6c0-0.2,0-0.4,0.1-0.5c0-0.1,0-0.3,0-0.4c0-0.1,0-0.2,0-0.3c0.1-0.2,0-0.4,0.1-0.6
			c0-0.2,0-0.4,0.1-0.5c0-0.2,0-0.3,0-0.5c0.1-0.1,0.1-0.3,0.2-0.4c0.2-0.3,0.5-0.7,0.7-1c2.2-3.3,4.4-6.6,6.6-9.9
			c0.1-0.1,0.1-0.2,0.2-0.3C31.4,10.5,31.6,10.4,31.8,10.3C31.8,10.3,31.8,10.3,31.8,10.3z M31.1,12c-0.9,1.4-1.9,2.8-2.8,4.3
			c-0.1,0.1-0.2,0.2-0.2,0.4c-0.1,0.1-0.2,0.2-0.2,0.4c0,0-0.1,0.1-0.1,0.1c-0.8,1.3-1.7,2.5-2.5,3.8C25,21,25,21.2,24.9,21.3
			c-0.1,0.1-0.2,0.3-0.2,0.4c-0.1,0.2-0.2,0.4-0.2,0.7c0.2,0.1,0.4,0.2,0.5,0.4c0.2-0.1,0.4-0.3,0.5-0.4c0.2-0.3,0.5-0.7,0.7-1
			c1.9-2.8,3.7-5.6,5.6-8.4c0.2-0.2,0.3-0.5,0.5-0.7c0.1-0.1,0.1-0.2,0.1-0.3c0-0.1,0.1-0.3,0-0.3c-0.2-0.1-0.3-0.2-0.5-0.3
			C31.5,11.4,31.3,11.7,31.1,12z M32.4,13c-0.5,0.7-0.9,1.4-1.4,2.1c-1.5,2.3-3.1,4.6-4.6,6.9c-0.2,0.3-0.4,0.5-0.5,0.8
			c0,0.1-0.1,0.2-0.1,0.2c0,0.1,0,0.1,0,0.2c0.2,0.1,0.3,0.2,0.5,0.3c0.1,0,0.1,0,0.2,0c0.2-0.2,0.4-0.4,0.6-0.6
			c0,0,0.1-0.1,0.1-0.1c1.7-2.5,3.4-5.1,5.1-7.6c0.1-0.1,0.2-0.3,0.3-0.5c0.3-0.4,0.5-0.7,0.7-1.1c0.2-0.3,0.4-0.6,0.5-0.9
			c0-0.1,0-0.2,0.1-0.3c-0.1-0.1-0.2-0.2-0.3-0.2c-0.1-0.1-0.2-0.2-0.3-0.2C32.9,12.3,32.7,12.6,32.4,13z"/>
	</g>
	<path class="st1" d="M11.2,11.7c0.2-0.1,0.3-0.1,0.5-0.2c0.2,0,0.5,0,0.7,0c0.1,0,0.1,0,0.2,0c0.1,0,0.1,0,0.2,0c1.3,0,2.6,0,3.9,0
		c0.2,0,0.3,0,0.5,0c0.1,0,0.1,0,0.2,0c0.7,0,1.4,0,2.2,0c0.1,0,0.2,0,0.2,0c0.4,0,0.8,0,1.3,0c0.3,0,0.5,0,0.8,0c0.1,0,0.1,0,0.2,0
		c0.1,0,0.2,0,0.3,0c0.1,0,0.1,0,0.2,0c0.1,0,0.1,0,0.2,0c0.1,0,0.3,0,0.4,0c1.2,0,2.5,0,3.7,0l0,0c0.3,0,0.6,0,0.9,0
		c0.1,0,0.1,0,0.2,0c0.1,0,0.2,0,0.2,0c0.1,0,0.2,0,0.2,0c0.2,0,0.5,0,0.7,0c0.1,0,0.1,0,0.2,0l0,0c0.1,0,0.2,0,0.2,0
		c-0.3,0.4-0.5,0.8-0.8,1.2c-0.2,0.2-0.3,0.5-0.5,0.8c-4.7,0-9.4,0-14.1,0c-0.2,0-0.5,0-0.7,0.1c-0.2,0.1-0.3,0.2-0.4,0.4
		c-0.1,0.2,0,0.4,0,0.6c0,5.6,0,11.1,0,16.7c0,0.3,0.2,0.7,0.6,0.7c0.2,0.1,0.4,0,0.6,0c5.6,0,11.1,0,16.7,0c0.4,0,0.8-0.3,0.8-0.8
		c0-3.9,0-7.9,0-11.8c0.1-0.1,0.1-0.2,0.2-0.2c0.6-0.8,1.1-1.7,1.7-2.5c0.1-0.1,0.1-0.2,0.2-0.2c0,4.2,0,8.4,0,12.6
		c0,1.4,0,2.8,0,4.3c0,0.1-0.1,0.2-0.1,0.3c-0.1,0.2-0.3,0.3-0.5,0.4c0,0-0.1,0-0.1,0c-0.1,0-0.2,0-0.2,0c-7,0-13.9,0-20.9,0
		c-0.5,0-1-0.5-1-1c0-6.9,0-13.8,0-20.7c0-0.1,0-0.1,0-0.2c0,0,0-0.1,0-0.1C10.9,12,11.1,11.8,11.2,11.7z"/>
	<path class="st1" d="M14.8,15C15,15,15.2,15,15.5,15c3.2,0,6.4,0,9.6,0c0.4,0,0.7,0.2,0.9,0.6c0.1,0.3,0.1,0.6,0.1,0.9
		c0,0.2-0.1,0.4-0.2,0.6c0,0,0,0,0,0c-0.2,0.2-0.4,0.4-0.7,0.4c-3.4,0-6.7,0-10.1,0c-0.5,0-0.9-0.4-0.9-0.9c0-0.2,0-0.4,0-0.6
		C14.1,15.5,14.4,15.2,14.8,15z"/>
	<path class="st1" d="M14.1,19.7c0-0.4,0.3-0.9,0.7-0.9c2.7,0,5.3,0,8,0c0.2,0,0.4,0.1,0.5,0.3c0.2,0.2,0.2,0.5,0.2,0.7
		c0,0.2,0,0.4,0,0.7c-0.1,0.2-0.1,0.4-0.3,0.6c-0.1,0.1-0.3,0.2-0.5,0.2c-2.6,0-5.3,0-7.9,0c-0.2,0-0.3-0.1-0.5-0.2c0,0,0,0,0,0
		c-0.1-0.1-0.1-0.2-0.2-0.3C14.1,20.4,14.1,20,14.1,19.7z"/>
	<path class="st1" d="M14.4,22.7c0.1-0.1,0.3-0.2,0.4-0.2c0.4,0,0.9,0,1.3,0c1.4,0,2.7,0,4.1,0c0.4,0,0.8,0,1.2,0
		c0.2,0,0.4,0,0.5,0.2c0.1,0.1,0.2,0.3,0.3,0.5c0.1,0.3,0,0.6,0,1c0,0.3-0.1,0.6-0.4,0.7c-0.2,0.1-0.4,0.1-0.5,0.1
		c-2.2,0-4.3,0-6.5,0c-0.2,0-0.3-0.1-0.4-0.2c-0.2-0.2-0.3-0.5-0.3-0.8c0-0.2,0-0.4,0-0.6C14.1,23.1,14.2,22.9,14.4,22.7z"/>
	<path class="st1" d="M14.3,26.5c0.1-0.1,0.3-0.3,0.5-0.3c2.2,0,4.5,0,6.7,0c0.2,0,0.3,0.1,0.5,0.2c0,0,0,0,0,0
		c0.1,0.2,0.2,0.4,0.2,0.6c0,0.3,0,0.5,0,0.8c0,0.2-0.1,0.5-0.2,0.7c-0.1,0.1-0.2,0.2-0.4,0.2c-2.1,0-4.2,0-6.3,0
		c-0.2,0-0.4,0-0.5,0l0,0l0,0c-0.2-0.1-0.3-0.3-0.4-0.4c-0.1-0.3-0.1-0.7-0.1-1C14.1,27,14.2,26.7,14.3,26.5z"/>
</g>
</svg>
